<svg id="svg" version="1.1" xmlns="http://www.w3.org/2000/svg" xmlns:xlink="http://www.w3.org/1999/xlink" width="400" height="278.6307743436358" viewBox="0, 0, 400,278.6307743436358"><g id="svgg"><path id="path0" d="M151.995 0.875 C 151.778 1.356,151.461 1.910,151.290 2.105 C 150.986 2.453,150.990 2.510,151.490 4.855 C 152.316 8.730,152.460 9.324,152.737 10.016 C 152.882 10.377,153.000 10.861,153.000 11.089 C 153.000 11.692,153.385 12.833,153.588 12.833 C 154.192 12.833,154.545 11.068,154.042 10.566 C 153.792 10.317,153.736 9.824,153.656 7.179 C 153.570 4.321,153.388 2.913,152.811 0.625 C 152.601 -0.207,152.465 -0.165,151.995 0.875 M270.297 7.542 C 269.681 8.498,269.257 11.500,269.738 11.500 C 269.992 11.500,270.843 10.549,271.127 9.947 C 271.850 8.418,271.999 7.833,271.667 7.833 C 271.575 7.833,271.500 7.683,271.500 7.500 C 271.500 7.011,270.619 7.041,270.297 7.542 M274.536 36.165 C 274.235 36.350,273.940 36.633,273.879 36.793 C 273.819 36.953,273.444 37.402,273.046 37.791 C 272.648 38.180,272.176 38.818,271.997 39.208 C 271.470 40.354,270.395 41.806,269.219 42.958 C 268.915 43.256,268.667 43.571,268.667 43.658 C 268.667 43.745,268.564 43.877,268.439 43.950 C 268.314 44.023,268.087 44.308,267.935 44.583 C 267.782 44.858,267.509 45.327,267.329 45.625 C 267.148 45.923,266.869 46.384,266.708 46.650 C 266.548 46.915,266.049 47.646,265.599 48.275 C 264.449 49.880,264.173 51.167,264.980 51.167 C 265.294 51.167,268.000 48.450,268.000 48.135 C 268.000 47.799,271.495 43.364,272.565 42.342 C 272.896 42.026,273.167 41.679,273.167 41.571 C 273.167 41.463,273.273 41.286,273.403 41.178 C 273.616 41.001,274.636 39.520,275.413 38.260 C 276.282 36.852,275.695 35.451,274.536 36.165 M206.669 39.381 C 205.816 39.813,205.867 41.333,206.735 41.333 C 207.498 41.333,208.158 39.891,207.633 39.367 C 207.382 39.115,207.189 39.118,206.669 39.381 M10.968 40.000 C 10.411 40.341,10.394 41.601,10.939 42.144 C 11.743 42.946,15.515 45.167,16.073 45.167 C 16.196 45.167,16.624 45.315,17.023 45.496 C 20.370 47.015,20.527 43.709,17.189 42.015 C 15.099 40.955,14.463 40.666,14.206 40.663 C 14.047 40.661,13.588 40.510,13.187 40.328 C 12.273 39.913,11.336 39.775,10.968 40.000 M392.917 45.333 C 392.860 45.425,392.706 45.500,392.575 45.500 C 392.278 45.500,391.333 46.469,391.333 46.775 C 391.333 47.092,391.834 47.055,392.698 46.673 C 393.690 46.234,394.119 45.761,393.836 45.420 C 393.598 45.133,393.071 45.083,392.917 45.333 M389.500 47.240 C 388.638 47.712,388.523 47.767,388.125 47.895 C 387.780 48.007,387.731 48.500,388.065 48.500 C 388.192 48.500,388.811 48.270,389.440 47.988 C 390.990 47.294,391.047 47.261,391.028 47.077 C 390.993 46.757,390.233 46.838,389.500 47.240 M0.000 55.825 C 0.000 57.349,0.003 57.353,3.000 58.729 C 3.413 58.919,3.975 59.235,4.250 59.432 C 6.405 60.979,9.061 61.744,8.969 60.792 C 8.915 60.230,8.643 60.031,6.882 59.268 C 6.535 59.117,5.837 58.695,5.333 58.330 C 4.829 57.966,4.313 57.667,4.186 57.667 C 3.903 57.667,2.894 57.075,2.333 56.579 C 2.104 56.376,1.485 55.939,0.958 55.607 L 0.000 55.004 0.000 55.825 M157.725 56.941 C 156.779 57.147,156.065 66.634,156.883 68.132 C 157.652 69.540,160.034 69.055,160.693 67.356 C 160.932 66.742,160.703 59.659,160.402 58.318 C 160.158 57.236,159.030 56.655,157.725 56.941 M227.708 60.327 C 227.502 60.589,227.333 60.941,227.333 61.110 C 227.333 61.279,227.222 61.942,227.086 62.583 C 226.946 63.246,226.838 64.636,226.836 65.801 C 226.833 67.934,226.606 69.321,226.223 69.550 C 226.101 69.623,226.000 69.780,226.000 69.899 C 226.000 70.018,225.850 70.251,225.667 70.417 C 225.483 70.583,225.333 70.805,225.333 70.911 C 225.333 71.017,225.183 71.415,225.000 71.794 C 224.817 72.173,224.667 72.739,224.667 73.050 C 224.667 73.886,224.370 74.590,223.917 74.833 C 223.696 74.951,223.448 75.244,223.364 75.484 C 223.161 76.066,222.420 76.467,222.014 76.214 C 221.850 76.112,221.363 75.975,220.931 75.910 C 219.448 75.688,218.001 74.225,217.999 72.945 C 217.998 72.563,217.898 72.059,217.777 71.826 C 217.655 71.593,217.505 71.152,217.444 70.847 C 217.319 70.220,215.853 68.323,215.240 67.995 C 214.535 67.617,213.336 68.586,213.334 69.535 C 213.334 69.723,213.105 69.888,212.663 70.021 C 211.511 70.366,210.573 69.198,210.035 66.750 C 209.450 64.087,208.794 63.403,207.424 64.027 C 206.617 64.395,206.505 66.853,207.228 68.308 C 207.673 69.203,207.896 71.525,207.706 73.279 C 207.608 74.180,207.568 75.160,207.616 75.458 L 207.704 76.000 206.777 76.000 C 205.535 76.000,205.147 76.209,204.668 77.135 C 204.446 77.565,204.130 78.096,203.966 78.314 C 203.801 78.533,203.667 78.811,203.667 78.932 C 203.667 79.388,202.432 80.333,201.836 80.333 C 201.651 80.333,201.362 80.471,201.193 80.640 C 200.859 80.974,199.647 81.333,198.854 81.333 C 198.337 81.333,197.667 80.644,197.667 80.111 C 197.667 79.972,197.399 79.346,197.072 78.720 C 196.398 77.433,195.667 75.453,195.667 74.917 C 195.667 74.255,193.535 72.336,192.798 72.334 C 192.197 72.333,191.799 73.018,191.877 73.917 C 191.946 74.695,192.674 76.569,192.957 76.694 C 193.434 76.905,194.500 80.261,194.500 81.554 C 194.500 81.953,194.612 82.649,194.748 83.099 C 195.194 84.568,194.666 85.169,192.934 85.162 L 191.750 85.157 190.417 83.860 C 189.683 83.147,188.869 82.286,188.607 81.948 C 188.344 81.610,188.023 81.333,187.893 81.333 C 187.763 81.333,187.613 81.221,187.560 81.083 C 187.508 80.946,187.295 80.833,187.088 80.833 C 186.085 80.833,184.697 78.868,183.517 75.778 C 182.619 73.425,180.602 71.438,179.416 71.735 C 178.501 71.965,178.188 74.129,178.974 74.790 C 179.166 74.951,179.416 75.458,179.530 75.917 C 179.733 76.740,181.517 79.500,181.845 79.500 C 181.930 79.500,182.000 79.578,182.000 79.673 C 182.000 79.767,182.129 80.042,182.286 80.282 C 183.143 81.589,183.679 87.538,183.068 88.964 C 182.922 89.304,182.762 90.185,182.713 90.921 L 182.624 92.258 181.774 92.759 C 181.111 93.150,180.887 93.392,180.754 93.863 C 180.660 94.195,180.452 94.611,180.292 94.788 C 180.131 94.965,180.000 95.226,180.000 95.369 C 180.000 95.511,179.869 95.669,179.708 95.720 C 179.548 95.771,179.221 95.941,178.982 96.097 C 178.375 96.495,176.015 95.456,176.003 94.785 C 176.001 94.712,175.859 94.450,175.687 94.202 C 175.515 93.953,174.992 93.166,174.525 92.452 C 174.059 91.738,173.427 90.913,173.123 90.619 C 172.818 90.324,172.419 89.872,172.237 89.614 C 171.841 89.054,170.685 88.805,170.232 89.182 C 169.464 89.819,170.276 91.976,172.181 94.364 L 173.417 95.913 173.389 97.630 C 173.371 98.732,173.259 99.659,173.077 100.216 C 172.920 100.693,172.706 101.346,172.602 101.667 C 172.458 102.107,172.229 102.342,171.664 102.625 C 170.832 103.043,169.500 104.265,169.500 104.610 C 169.500 105.008,168.591 104.861,168.048 104.375 C 167.611 103.985,167.494 103.699,167.261 102.452 L 166.987 100.987 167.425 100.618 C 168.971 99.318,169.221 98.590,168.516 97.436 C 168.237 96.981,168.215 96.753,168.335 95.583 C 168.487 94.114,168.028 92.880,167.042 92.104 C 166.339 91.551,165.743 90.939,165.450 90.467 C 165.281 90.195,164.922 89.948,164.543 89.843 C 162.844 89.371,161.913 90.194,161.923 92.159 C 161.935 94.770,162.283 97.271,162.741 98.053 C 163.768 99.805,162.691 100.940,161.190 99.689 C 158.507 97.452,157.167 97.363,157.167 99.421 C 157.167 100.291,157.271 100.414,159.500 102.168 C 161.780 103.963,161.973 104.167,162.897 105.776 C 163.326 106.523,163.781 107.221,163.908 107.327 C 164.334 107.679,162.856 108.851,161.942 108.887 C 160.977 108.924,159.667 107.529,159.667 106.464 C 159.667 106.073,159.009 105.927,157.944 106.081 C 156.852 106.239,155.825 106.201,155.574 105.992 C 155.467 105.903,154.938 105.751,154.398 105.654 C 153.380 105.470,152.253 104.988,151.365 104.356 C 151.081 104.154,150.452 103.811,149.966 103.595 C 149.481 103.378,148.783 102.993,148.417 102.740 C 147.912 102.392,147.419 102.239,146.389 102.109 C 142.582 101.631,139.092 103.025,136.662 105.994 C 136.252 106.495,135.713 107.095,135.465 107.328 C 135.061 107.705,134.807 108.225,134.091 110.140 C 133.893 110.669,133.109 111.500,132.807 111.500 C 132.730 111.500,132.667 111.604,132.667 111.732 C 132.667 111.860,132.554 112.008,132.417 112.060 C 131.636 112.360,132.403 114.050,133.852 115.224 C 134.803 115.993,135.333 117.185,135.333 118.550 C 135.333 118.769,135.483 119.384,135.667 119.917 C 135.912 120.630,136.000 121.320,136.000 122.533 C 136.000 123.851,136.067 124.310,136.333 124.833 C 136.770 125.689,136.757 126.781,136.298 127.873 C 135.946 128.709,135.928 128.975,135.923 133.626 L 135.917 138.501 135.290 139.167 C 134.759 139.731,134.559 139.833,133.990 139.833 C 132.556 139.833,132.006 140.365,132.003 141.750 C 132.000 143.228,133.107 144.823,134.148 144.841 C 134.387 144.845,134.883 144.963,135.250 145.103 C 135.617 145.243,136.347 145.474,136.872 145.615 C 137.419 145.763,138.014 146.059,138.264 146.310 L 138.701 146.747 138.309 146.857 C 137.478 147.090,136.886 147.004,136.432 146.583 C 135.980 146.164,135.767 146.102,135.000 146.163 C 133.865 146.254,132.667 148.901,132.659 151.333 C 132.655 152.797,132.443 153.155,131.285 153.652 C 130.239 154.100,130.000 154.512,130.000 155.863 L 130.000 156.986 130.737 157.418 C 131.143 157.656,131.762 157.894,132.112 157.948 C 133.018 158.086,133.333 158.419,133.333 159.236 C 133.333 159.739,133.421 159.975,133.667 160.128 C 133.850 160.242,134.000 160.489,134.000 160.675 C 134.000 161.023,134.312 161.526,135.339 162.833 C 135.663 163.246,136.113 163.864,136.339 164.207 C 136.815 164.929,137.363 165.019,138.507 164.561 C 139.434 164.190,139.857 164.404,140.243 165.442 C 140.409 165.886,140.674 166.400,140.833 166.583 C 141.979 167.910,141.668 169.540,139.776 172.125 L 139.135 173.000 137.268 173.000 C 134.982 173.000,134.654 173.224,135.195 174.413 C 135.452 174.976,136.057 175.114,136.773 174.772 C 137.981 174.197,141.413 174.675,142.277 175.539 C 142.741 176.003,142.170 176.978,141.582 176.728 C 139.474 175.829,138.476 177.369,138.432 181.583 C 138.420 182.702,138.329 183.730,138.225 183.917 C 138.123 184.100,137.987 184.512,137.923 184.833 C 137.858 185.154,137.578 186.153,137.299 187.054 C 136.107 190.910,138.307 192.661,140.706 189.766 C 141.169 189.207,141.593 188.713,141.649 188.667 C 141.875 188.480,142.365 187.454,142.591 186.693 C 142.929 185.556,145.505 182.676,146.191 182.669 C 146.341 182.668,146.508 182.554,146.560 182.417 C 146.626 182.245,146.894 182.167,147.410 182.167 C 148.015 182.167,148.315 182.051,148.928 181.583 C 149.880 180.857,149.840 180.854,150.546 181.716 L 151.133 182.432 150.801 184.008 C 150.095 187.361,150.805 188.667,153.334 188.667 C 155.534 188.667,156.085 188.921,157.267 190.483 C 157.853 191.258,158.333 192.053,158.333 192.250 C 158.333 192.988,156.812 193.929,155.896 193.757 C 155.348 193.654,155.333 193.666,155.333 194.211 C 155.333 194.527,155.198 194.916,155.023 195.104 C 154.363 195.812,154.101 197.042,154.482 197.643 C 154.728 198.032,155.991 198.055,157.143 197.691 L 158.203 197.357 159.408 197.928 C 160.070 198.243,160.807 198.500,161.046 198.500 C 161.812 198.500,161.774 198.966,160.912 200.150 C 159.543 202.030,161.599 202.623,163.281 200.834 C 164.161 199.898,164.357 199.768,164.870 199.782 C 165.398 199.797,166.832 200.550,166.834 200.814 C 166.835 200.870,167.093 201.198,167.409 201.542 C 168.118 202.314,168.618 202.357,168.858 201.667 C 169.004 201.248,169.122 201.167,169.579 201.167 C 169.880 201.167,170.212 201.062,170.318 200.935 C 170.509 200.705,171.499 200.470,171.501 200.654 C 171.504 200.843,172.410 201.167,172.936 201.167 C 173.795 201.167,174.000 201.312,174.000 201.925 C 174.000 202.230,173.936 202.520,173.857 202.569 C 173.779 202.617,173.617 203.128,173.498 203.703 C 173.379 204.279,173.096 205.124,172.868 205.582 C 172.119 207.086,172.071 208.167,172.755 208.167 C 173.165 208.167,174.507 207.509,174.602 207.262 C 174.834 206.658,176.703 206.026,178.583 205.917 L 180.417 205.811 180.856 206.280 C 181.256 206.708,181.302 206.898,181.370 208.418 C 181.453 210.259,181.552 210.525,182.617 211.777 C 183.688 213.036,183.648 214.567,182.484 216.868 C 181.941 217.940,182.120 219.154,182.910 219.756 C 183.754 220.400,184.572 219.969,185.606 218.333 C 185.867 217.921,186.175 217.523,186.290 217.450 C 186.406 217.377,186.500 217.246,186.500 217.160 C 186.500 217.003,186.676 216.766,187.555 215.730 C 188.375 214.766,189.500 214.634,189.500 215.502 C 189.500 216.064,189.816 216.833,190.046 216.833 C 190.134 216.833,190.170 216.647,190.127 216.420 C 190.067 216.108,190.153 215.940,190.482 215.731 C 190.721 215.579,191.160 215.203,191.458 214.894 C 191.971 214.363,192.061 214.333,193.159 214.333 C 195.826 214.333,196.607 216.118,195.432 219.524 C 195.194 220.212,195.000 220.938,195.000 221.138 C 195.000 221.337,194.936 221.500,194.859 221.500 C 194.628 221.500,194.469 225.012,194.687 225.275 C 195.170 225.857,197.000 224.972,197.000 224.156 C 197.000 223.920,197.821 222.194,197.980 222.096 C 198.059 222.047,198.340 221.349,198.603 220.545 C 199.207 218.701,199.844 218.390,201.622 219.075 C 201.967 219.208,202.729 219.355,203.314 219.401 C 204.029 219.456,204.493 219.587,204.731 219.798 C 204.925 219.970,205.371 220.243,205.722 220.403 C 206.398 220.712,206.872 221.176,207.417 222.061 C 207.600 222.359,207.998 222.973,208.302 223.426 C 208.765 224.118,208.847 224.383,208.817 225.083 C 208.692 227.936,208.802 228.744,209.424 229.559 L 210.015 230.334 209.841 232.968 C 209.585 236.812,209.826 237.491,211.450 237.498 C 212.496 237.502,213.197 236.737,213.589 235.167 C 213.646 234.938,213.793 234.525,213.915 234.250 C 214.037 233.975,214.190 233.239,214.255 232.615 C 214.369 231.532,214.415 231.437,215.271 230.540 C 216.186 229.579,216.260 229.379,216.183 228.063 C 216.135 227.239,216.485 227.078,217.932 227.259 C 219.375 227.439,220.664 228.706,220.666 229.945 C 220.668 231.321,222.501 236.383,223.077 236.604 C 223.275 236.680,223.272 238.361,223.073 238.683 C 223.000 238.801,223.016 238.922,223.108 238.953 C 223.199 238.983,223.242 239.231,223.202 239.504 C 223.146 239.883,223.194 240.000,223.403 240.000 C 223.754 240.000,223.935 239.535,223.720 239.186 C 223.621 239.026,223.601 238.511,223.672 237.917 C 223.737 237.367,223.732 236.853,223.662 236.775 C 223.137 236.196,225.538 234.243,227.383 233.749 L 228.517 233.446 229.348 234.265 L 230.180 235.083 233.132 235.073 C 235.987 235.062,236.116 235.047,237.083 234.603 C 237.633 234.351,238.445 234.076,238.887 233.991 C 239.329 233.907,239.929 233.730,240.221 233.599 C 240.512 233.467,240.916 233.312,241.118 233.254 C 241.662 233.098,244.437 229.704,244.767 228.792 C 244.825 228.631,244.963 228.500,245.074 228.500 C 245.294 228.500,246.000 227.810,246.000 227.595 C 246.000 227.429,246.759 226.518,247.816 225.417 C 248.255 224.958,248.740 224.379,248.892 224.128 C 249.984 222.339,253.581 223.976,254.229 226.558 C 254.519 227.716,255.928 228.060,256.724 227.167 C 256.969 226.892,257.235 226.667,257.316 226.667 C 257.703 226.667,258.029 225.464,257.917 224.444 C 257.753 222.945,257.332 220.517,257.154 220.050 C 256.924 219.446,256.968 218.300,257.250 217.500 C 257.387 217.110,257.500 216.546,257.500 216.247 C 257.500 215.904,257.598 215.665,257.764 215.601 C 258.225 215.424,258.494 215.487,258.394 215.749 C 258.339 215.893,258.416 216.042,258.579 216.105 C 258.733 216.164,258.926 216.389,259.009 216.606 C 259.190 217.084,259.592 217.118,259.829 216.675 C 259.955 216.439,259.939 216.200,259.770 215.800 C 259.126 214.272,258.808 213.307,258.884 213.107 C 258.995 212.819,260.023 212.334,260.525 212.332 C 260.741 212.332,261.179 212.260,261.500 212.173 C 261.821 212.086,263.014 211.935,264.151 211.838 C 266.837 211.609,268.000 210.837,268.000 209.282 C 268.000 209.050,268.110 208.648,268.244 208.389 C 268.379 208.129,268.531 207.654,268.583 207.333 C 268.691 206.662,269.205 206.024,269.920 205.673 C 271.291 205.000,271.289 205.002,271.359 203.125 C 271.433 201.127,271.727 200.463,273.154 199.080 C 274.416 197.855,274.651 197.767,275.585 198.168 C 276.835 198.703,279.833 198.566,279.833 197.973 C 279.833 197.896,279.923 197.833,280.033 197.833 C 281.023 197.833,281.439 196.107,280.915 194.167 C 280.779 193.662,280.621 192.725,280.565 192.083 C 280.506 191.423,280.325 190.678,280.147 190.365 C 279.768 189.700,279.748 189.056,280.085 188.380 C 280.223 188.103,280.649 186.624,281.032 185.094 L 281.728 182.312 282.420 181.906 C 283.058 181.532,283.284 181.500,285.282 181.500 L 287.452 181.500 287.873 180.991 C 288.753 179.929,288.773 177.710,287.909 176.994 C 287.776 176.883,287.667 176.717,287.667 176.624 C 287.667 176.532,287.398 176.083,287.071 175.627 C 286.557 174.912,286.498 174.736,286.640 174.357 C 286.732 174.115,286.848 173.617,286.899 173.250 C 287.069 172.027,287.514 170.819,287.926 170.461 C 288.150 170.266,288.333 170.008,288.333 169.887 C 288.333 169.766,288.403 169.667,288.489 169.667 C 288.574 169.667,288.692 169.517,288.750 169.333 C 288.882 168.919,290.035 168.871,290.927 169.243 C 295.134 171.001,298.916 167.148,295.287 164.801 C 293.752 163.808,293.825 163.903,294.122 163.293 C 294.268 162.994,294.590 162.487,294.837 162.167 C 295.085 161.846,295.404 161.358,295.546 161.083 C 296.199 159.823,296.891 159.574,298.333 160.083 C 299.377 160.452,299.640 160.401,300.422 159.679 C 301.249 158.917,301.865 158.707,303.917 158.489 C 304.742 158.402,305.642 158.287,305.918 158.235 C 306.358 158.152,306.572 158.277,307.668 159.250 C 310.435 161.709,312.209 160.442,310.667 157.110 C 309.965 155.594,310.171 154.944,311.809 153.500 C 311.965 153.362,312.257 152.983,312.458 152.656 C 313.000 151.772,313.371 151.503,314.271 151.338 C 317.201 150.800,317.926 149.958,317.324 147.791 C 317.123 147.067,317.676 145.572,318.208 145.403 C 318.369 145.353,318.500 145.247,318.500 145.169 C 318.500 145.090,318.725 144.977,319.000 144.917 C 319.275 144.856,319.609 144.651,319.742 144.461 C 319.948 144.166,320.256 144.092,321.842 143.956 C 324.167 143.756,324.152 143.745,324.325 145.833 L 324.452 147.373 325.268 148.099 C 325.716 148.498,326.145 148.826,326.220 148.829 C 326.296 148.831,326.470 148.946,326.607 149.083 C 326.745 149.221,327.138 149.333,327.481 149.333 C 327.825 149.333,328.538 149.413,329.066 149.511 C 330.395 149.757,332.167 149.117,332.167 148.391 C 332.167 148.280,332.315 148.142,332.496 148.085 C 332.976 147.932,333.129 147.062,333.104 144.617 L 333.083 142.484 332.333 141.756 C 331.921 141.355,331.479 140.901,331.351 140.746 C 331.083 140.419,330.101 140.465,328.000 140.905 C 325.540 141.419,325.044 141.261,323.841 139.578 C 323.351 138.894,322.858 138.333,322.745 138.333 C 322.631 138.333,322.259 138.023,321.916 137.644 L 321.294 136.955 321.897 136.403 C 322.229 136.099,322.500 135.782,322.500 135.698 C 322.500 135.219,323.658 134.385,324.833 134.017 C 325.521 133.802,326.458 133.496,326.917 133.336 C 328.847 132.663,330.924 132.287,334.750 131.920 C 337.093 131.695,337.019 131.729,336.975 130.895 C 336.910 129.628,335.665 129.543,332.417 130.586 C 331.814 130.779,331.264 130.854,328.833 131.078 C 328.421 131.116,327.679 131.227,327.186 131.324 C 325.929 131.570,324.503 131.554,324.489 131.292 C 324.363 128.910,324.311 128.581,324.012 128.259 C 323.639 127.859,323.765 126.635,324.215 126.284 C 325.592 125.208,325.514 123.648,323.998 121.933 C 322.682 120.446,322.571 120.083,323.375 119.911 C 324.743 119.618,325.500 118.650,325.500 117.194 C 325.500 116.049,325.155 115.853,322.500 115.495 C 321.721 115.390,320.758 115.155,320.360 114.974 C 319.962 114.793,319.437 114.658,319.193 114.673 C 318.185 114.738,317.817 114.642,317.285 114.175 C 316.145 113.174,316.103 111.473,317.193 110.358 C 318.958 108.553,317.675 106.165,315.477 107.163 C 315.077 107.344,314.563 107.495,314.333 107.499 C 314.104 107.502,313.611 107.611,313.237 107.742 C 310.932 108.545,307.833 108.155,307.833 107.061 C 307.833 106.360,306.837 105.000,306.324 105.000 C 306.213 105.000,305.861 104.838,305.541 104.640 C 304.996 104.304,304.891 104.294,303.913 104.488 C 302.846 104.700,302.536 104.642,301.833 104.096 C 301.696 103.990,301.283 103.807,300.917 103.691 C 300.550 103.575,299.980 103.365,299.650 103.226 C 299.019 102.959,297.357 103.553,295.925 104.558 C 294.986 105.217,293.308 105.067,292.023 104.208 C 290.821 103.406,290.509 103.359,289.601 103.845 C 288.831 104.258,288.427 104.282,286.907 104.004 C 285.103 103.675,284.947 103.603,284.447 102.862 C 283.904 102.057,283.311 101.962,281.661 102.419 C 279.974 102.886,279.774 102.894,279.431 102.515 C 279.094 102.143,278.557 102.078,277.747 102.310 C 276.268 102.735,275.762 102.127,275.857 100.040 C 275.910 98.887,275.976 98.660,276.428 98.077 C 276.710 97.714,277.187 96.929,277.490 96.333 C 277.792 95.737,278.143 95.132,278.270 94.987 C 278.396 94.842,278.500 94.675,278.500 94.615 C 278.500 94.423,279.613 92.767,280.106 92.225 C 281.859 90.299,282.372 88.523,281.443 87.594 C 280.737 86.889,279.632 87.060,278.927 87.985 C 278.746 88.222,278.322 88.698,277.986 89.041 C 277.308 89.732,276.500 90.753,276.500 90.917 C 276.500 91.407,274.288 93.602,272.671 94.716 C 272.101 95.109,269.841 95.114,269.202 94.723 C 266.517 93.081,265.688 92.054,265.365 89.969 C 265.195 88.873,264.651 87.833,264.248 87.833 C 262.490 87.833,262.969 82.347,265.120 77.833 C 267.207 73.456,266.745 71.087,263.963 71.896 C 262.966 72.186,262.658 72.613,262.079 74.500 C 261.924 75.004,261.703 75.717,261.587 76.083 C 261.471 76.450,261.169 77.425,260.915 78.250 C 259.863 81.675,259.391 82.163,257.637 81.638 C 257.011 81.451,256.965 81.464,256.512 81.960 C 256.228 82.271,255.798 82.523,255.434 82.591 C 255.102 82.653,254.789 82.771,254.738 82.852 C 254.688 82.934,254.473 83.000,254.261 83.000 C 254.048 83.000,253.592 83.118,253.247 83.262 C 252.404 83.614,252.077 83.495,251.000 82.444 C 250.496 81.952,249.847 81.427,249.558 81.279 L 249.032 81.008 248.957 78.712 C 248.801 73.917,246.600 70.942,244.848 73.158 C 243.883 74.378,240.251 77.863,239.708 78.090 C 239.288 78.266,238.447 78.333,236.679 78.333 L 234.232 78.333 233.684 77.768 L 233.135 77.202 233.109 74.726 C 233.083 72.221,232.879 71.297,232.234 70.750 C 232.126 70.658,231.691 70.187,231.269 69.703 L 230.500 68.822 230.500 66.400 C 230.500 65.042,230.576 63.836,230.673 63.654 C 230.862 63.302,230.541 61.367,230.183 60.698 C 229.696 59.787,228.299 59.578,227.708 60.327 M160.808 72.042 C 159.639 73.031,159.579 78.667,160.737 78.667 C 161.932 78.667,162.720 77.100,162.801 74.561 C 162.891 71.769,162.186 70.877,160.808 72.042 M45.250 84.032 C 44.120 84.673,44.580 86.421,46.332 88.144 C 47.119 88.917,47.443 89.167,47.658 89.167 C 47.753 89.167,47.924 89.317,48.039 89.500 C 48.153 89.683,48.351 89.833,48.479 89.833 C 48.606 89.833,48.945 89.976,49.230 90.150 C 49.995 90.615,51.456 90.874,52.166 90.668 C 52.486 90.576,52.943 90.500,53.180 90.500 C 53.903 90.500,54.200 89.444,53.835 88.173 C 53.496 86.991,51.193 85.167,50.038 85.167 C 49.778 85.167,48.945 84.867,48.187 84.500 C 46.767 83.813,45.884 83.673,45.250 84.032 M368.500 93.651 C 364.332 93.721,362.460 93.811,362.167 93.955 C 361.695 94.188,357.737 95.000,357.077 95.000 C 356.505 95.000,356.000 95.283,356.000 95.602 C 356.000 95.801,356.113 95.835,356.495 95.751 C 357.093 95.620,359.675 96.225,360.468 96.682 C 361.212 97.111,363.677 97.110,366.392 96.678 C 369.053 96.255,372.110 95.998,374.583 95.989 C 376.736 95.981,377.711 95.766,377.804 95.278 C 377.889 94.835,377.691 94.167,377.474 94.167 C 377.371 94.167,377.197 94.044,377.087 93.893 C 376.832 93.544,376.109 93.524,368.500 93.651 M25.409 104.676 C 25.184 104.910,25.000 105.186,25.000 105.289 C 25.000 105.720,24.041 106.167,23.117 106.167 C 22.175 106.167,21.667 106.732,21.667 107.779 C 21.667 108.227,20.896 109.099,20.218 109.419 C 18.332 110.309,17.981 110.885,18.496 112.240 C 18.681 112.727,18.463 113.387,17.948 113.899 C 17.576 114.268,17.659 115.513,18.116 116.396 C 18.314 116.780,18.385 117.463,18.401 119.161 C 18.427 121.906,18.640 122.500,19.596 122.500 C 20.386 122.500,21.063 122.876,21.476 123.545 C 21.664 123.849,21.970 124.282,22.156 124.507 C 22.720 125.191,22.748 125.229,23.144 125.875 C 23.581 126.589,24.208 126.703,25.137 126.240 C 25.789 125.914,26.468 126.182,27.780 127.282 L 28.644 128.006 29.364 127.727 C 29.759 127.573,30.628 127.416,31.293 127.377 C 32.327 127.317,32.529 127.254,32.689 126.945 C 33.183 125.985,33.480 125.833,34.862 125.833 C 35.911 125.833,36.167 125.784,36.167 125.583 C 36.167 125.446,36.234 125.333,36.316 125.333 C 36.399 125.333,36.710 124.865,37.008 124.292 C 37.598 123.159,37.901 122.847,38.421 122.839 C 38.957 122.830,39.463 122.379,39.591 121.797 C 39.724 121.192,39.949 120.753,40.375 120.269 C 40.535 120.086,40.670 119.858,40.673 119.760 C 40.677 119.663,40.696 118.652,40.715 117.514 C 40.740 116.032,40.809 115.425,40.958 115.375 C 41.186 115.299,41.249 114.833,41.032 114.833 C 40.778 114.833,40.292 112.854,40.402 112.269 C 40.538 111.547,40.286 110.894,39.814 110.744 C 38.994 110.483,38.500 109.689,38.500 108.628 C 38.500 107.690,38.289 107.500,37.248 107.500 C 36.341 107.500,35.673 107.033,35.431 106.229 C 35.372 106.035,34.858 105.510,34.289 105.063 L 33.253 104.250 29.535 104.250 L 25.817 104.250 25.409 104.676 M119.417 133.303 C 117.474 134.039,117.055 134.557,117.265 135.960 C 117.386 136.767,118.094 137.667,118.606 137.667 C 118.922 137.667,120.452 138.448,121.091 138.934 C 121.579 139.306,122.840 140.000,124.878 141.019 C 127.006 142.084,129.250 141.196,128.295 139.668 C 128.127 139.398,128.146 139.247,128.404 138.809 C 128.712 138.289,128.712 138.273,128.401 138.007 C 128.226 137.858,127.968 137.514,127.828 137.244 C 127.483 136.582,127.187 136.563,126.531 137.162 C 125.836 137.797,123.680 137.918,122.992 137.360 C 122.518 136.977,122.609 136.831,123.844 135.993 C 125.238 135.046,125.258 134.041,123.892 133.559 C 123.156 133.299,119.916 133.113,119.417 133.303 M103.430 136.988 C 103.071 137.063,102.695 137.227,102.595 137.353 C 102.284 137.747,101.361 138.333,101.048 138.337 C 100.884 138.339,100.563 138.487,100.333 138.667 C 100.104 138.846,99.795 138.994,99.645 138.996 C 98.669 139.010,95.174 140.855,94.498 141.715 C 94.303 141.963,94.035 142.167,93.905 142.167 C 93.774 142.167,93.667 142.231,93.667 142.310 C 93.667 142.389,93.093 142.506,92.391 142.570 C 90.021 142.784,89.768 142.989,90.027 144.471 C 90.150 145.169,90.130 145.215,89.410 145.914 C 88.179 147.111,88.617 148.167,90.347 148.167 C 91.385 148.167,91.922 147.716,92.334 146.498 L 92.643 145.583 95.920 145.500 C 99.115 145.419,99.205 145.407,99.515 145.023 C 99.949 144.487,99.915 143.964,99.417 143.531 C 98.597 142.818,98.981 142.159,100.033 142.475 C 101.346 142.870,101.584 142.874,102.224 142.514 C 102.746 142.222,103.128 142.167,104.639 142.167 C 106.243 142.167,106.489 142.127,106.933 141.792 C 108.775 140.405,109.561 138.409,108.542 137.707 C 107.556 137.028,104.985 136.667,103.430 136.988 M107.334 147.042 C 107.339 148.160,107.824 148.827,108.633 148.831 C 108.936 148.832,109.386 148.937,109.633 149.064 C 110.165 149.336,112.916 149.582,113.644 149.422 C 114.338 149.269,114.582 148.167,113.921 148.167 C 113.806 148.167,113.528 148.022,113.303 147.845 C 112.220 146.993,107.331 146.335,107.334 147.042 M97.417 158.758 C 97.142 158.910,96.354 159.104,95.667 159.190 C 93.023 159.519,91.897 160.493,92.031 162.335 C 92.091 163.169,93.027 163.820,94.179 163.829 C 94.506 163.831,95.129 163.954,95.563 164.102 C 96.505 164.423,98.951 164.156,99.120 163.713 C 99.194 163.521,99.240 163.516,99.346 163.688 C 99.453 163.860,99.540 163.852,99.781 163.647 C 99.948 163.505,100.430 163.262,100.855 163.106 C 102.651 162.444,102.854 160.454,101.201 159.709 C 100.861 159.556,100.387 159.255,100.147 159.039 C 99.562 158.513,98.127 158.365,97.417 158.758 M128.833 173.610 C 128.281 173.696,126.839 174.379,126.836 174.557 C 126.834 174.634,126.683 174.888,126.500 175.121 C 126.109 175.619,126.062 176.539,126.413 176.830 C 126.819 177.167,128.496 177.066,129.028 176.673 C 129.280 176.486,129.587 176.333,129.711 176.333 C 130.315 176.333,131.667 174.874,131.667 174.223 C 131.667 173.597,130.519 173.349,128.833 173.610 M116.385 174.480 C 115.795 174.595,115.000 175.210,115.000 175.553 C 115.000 176.221,116.721 177.096,117.652 176.902 C 117.981 176.834,118.334 176.791,118.436 176.808 C 118.538 176.824,118.716 176.724,118.832 176.586 C 118.947 176.447,119.130 176.333,119.239 176.333 C 119.946 176.333,120.416 175.107,119.905 174.595 C 119.632 174.323,117.548 174.255,116.385 174.480 M354.217 177.315 C 354.104 177.496,353.751 177.669,353.385 177.722 C 349.655 178.263,348.716 178.699,348.274 180.093 C 348.215 180.277,347.792 180.709,347.333 181.051 C 346.594 181.603,346.260 182.051,345.693 183.250 C 345.212 184.269,344.878 186.776,345.154 187.294 C 345.239 187.453,345.515 188.246,345.767 189.055 C 346.161 190.322,346.514 190.975,347.331 191.951 C 347.424 192.062,347.500 192.226,347.500 192.315 C 347.500 192.404,347.650 192.525,347.833 192.583 C 348.017 192.642,348.167 192.748,348.167 192.820 C 348.167 192.970,349.777 194.000,350.011 194.000 C 350.097 194.000,350.167 194.070,350.167 194.156 C 350.167 194.242,350.429 194.407,350.750 194.523 C 351.071 194.639,351.333 194.788,351.333 194.855 C 351.333 195.338,357.015 195.598,357.368 195.131 C 357.486 194.974,357.880 194.749,358.242 194.631 C 358.831 194.439,358.928 194.328,359.153 193.583 C 359.292 193.125,359.494 192.694,359.604 192.626 C 359.713 192.557,359.854 192.126,359.917 191.667 C 359.983 191.185,360.140 190.771,360.289 190.688 C 360.461 190.592,360.519 190.395,360.463 190.101 C 360.416 189.858,360.443 189.619,360.522 189.570 C 360.602 189.520,360.667 189.338,360.667 189.165 C 360.667 188.992,360.793 188.779,360.948 188.693 C 361.102 188.606,361.261 188.284,361.301 187.976 C 361.472 186.665,361.517 184.946,361.384 184.852 C 361.013 184.591,359.667 182.138,359.667 181.724 C 359.667 181.601,359.592 181.500,359.500 181.500 C 359.408 181.500,359.333 181.351,359.333 181.169 C 359.333 180.968,359.072 180.665,358.667 180.397 C 357.940 179.916,357.333 179.072,357.333 178.541 C 357.333 178.147,356.675 177.667,356.131 177.666 C 355.921 177.665,355.525 177.515,355.250 177.333 C 354.628 176.921,354.465 176.918,354.217 177.315 M145.167 205.313 C 145.167 205.394,144.947 205.551,144.678 205.662 C 143.771 206.038,143.211 208.000,144.011 208.000 C 145.063 208.000,146.152 206.535,145.879 205.488 C 145.797 205.175,145.167 205.020,145.167 205.313 M356.319 208.297 C 355.715 208.638,354.934 209.198,354.585 209.542 C 354.235 209.885,353.886 210.167,353.809 210.167 C 353.282 210.167,352.312 210.822,351.853 211.488 C 351.564 211.907,350.806 212.804,350.168 213.482 C 349.530 214.159,348.960 214.872,348.901 215.065 C 348.843 215.259,348.652 215.573,348.477 215.765 C 348.289 215.971,348.070 216.618,347.942 217.348 C 347.822 218.028,347.524 218.958,347.279 219.415 C 346.939 220.050,346.833 220.483,346.833 221.237 C 346.833 221.782,346.749 222.884,346.646 223.687 C 346.440 225.297,346.539 226.205,346.968 226.636 C 347.384 227.053,348.500 228.776,348.500 229.000 C 348.500 229.293,351.493 233.330,352.243 234.048 C 352.906 234.683,355.032 235.833,355.541 235.833 C 355.691 235.833,355.864 235.915,355.925 236.014 C 356.240 236.523,361.682 238.500,362.770 238.500 C 363.104 238.500,363.853 238.588,364.434 238.695 C 367.165 239.198,369.826 237.610,369.903 235.432 C 369.932 234.604,370.116 234.087,370.541 233.638 C 370.656 233.516,370.966 233.098,371.231 232.708 C 371.496 232.319,371.770 232.000,371.840 232.000 C 372.302 232.000,373.108 229.840,373.251 228.221 C 373.277 227.930,373.346 227.615,373.404 227.521 C 373.462 227.426,373.427 226.877,373.325 226.300 C 373.223 225.722,373.074 224.313,372.994 223.167 C 372.818 220.656,372.681 219.695,372.482 219.572 C 372.400 219.522,372.329 219.129,372.324 218.698 C 372.317 218.153,372.169 217.665,371.833 217.083 C 371.569 216.625,371.202 215.978,371.017 215.646 C 370.832 215.313,370.565 214.997,370.424 214.942 C 370.282 214.888,370.167 214.709,370.167 214.545 C 370.167 214.145,368.559 213.167,367.901 213.167 C 367.774 213.167,367.491 212.882,367.272 212.535 C 366.745 211.700,365.058 210.500,364.411 210.500 C 364.344 210.500,363.700 210.200,362.980 209.833 C 362.221 209.447,361.436 209.167,361.111 209.167 C 360.199 209.167,359.543 208.850,359.181 208.237 C 358.703 207.427,357.828 207.446,356.319 208.297 M326.196 209.440 C 326.226 209.590,326.788 209.994,327.446 210.338 C 328.103 210.682,328.928 211.191,329.279 211.468 C 329.630 211.746,330.153 212.110,330.442 212.278 C 331.272 212.761,333.014 213.751,333.833 214.207 C 334.246 214.436,335.146 214.958,335.833 215.367 C 337.518 216.369,338.667 216.559,338.667 215.834 C 338.667 215.478,338.540 215.260,338.208 215.051 C 337.956 214.891,336.662 213.966,335.333 212.996 C 334.004 212.025,332.654 211.094,332.333 210.927 C 330.635 210.042,330.098 209.829,328.764 209.513 C 326.944 209.080,326.121 209.057,326.196 209.440 M160.936 210.453 C 160.604 210.795,160.333 211.155,160.333 211.256 C 160.333 211.356,160.194 211.733,160.023 212.094 C 159.524 213.146,159.409 215.866,159.845 216.261 C 161.088 217.385,163.333 214.226,163.333 211.353 C 163.333 209.632,162.161 209.192,160.936 210.453 M175.285 210.524 C 174.245 211.106,173.771 213.915,174.291 216.417 C 174.406 216.967,174.541 217.773,174.593 218.208 C 174.672 218.871,174.753 219.015,175.095 219.101 C 177.006 219.581,178.364 213.483,176.827 211.324 C 176.362 210.672,175.666 210.310,175.285 210.524 M303.667 215.438 C 303.667 215.706,305.165 217.128,305.729 217.396 C 306.036 217.541,306.382 217.774,306.497 217.914 C 306.613 218.053,306.844 218.167,307.011 218.167 C 307.177 218.167,307.360 218.242,307.417 218.335 C 307.474 218.427,307.798 218.643,308.136 218.815 C 308.474 218.987,309.217 219.371,309.787 219.667 C 310.358 219.963,310.937 220.163,311.074 220.110 C 311.455 219.964,311.604 219.153,311.291 218.932 C 311.148 218.832,310.868 218.637,310.667 218.500 C 310.466 218.362,310.148 218.119,309.960 217.959 C 309.636 217.684,308.661 217.336,308.208 217.334 C 308.094 217.334,308.000 217.256,308.000 217.163 C 308.000 217.069,307.827 216.926,307.615 216.845 C 307.403 216.765,306.671 216.431,305.990 216.103 C 304.699 215.483,303.667 215.187,303.667 215.438 M189.000 217.589 C 189.000 217.821,188.896 218.050,188.769 218.099 C 188.641 218.148,188.493 218.408,188.440 218.676 C 188.386 218.945,188.190 219.479,188.004 219.864 C 187.819 220.248,187.667 220.699,187.667 220.865 C 187.667 221.031,187.554 221.167,187.417 221.167 C 187.279 221.167,187.167 221.279,187.167 221.417 C 187.167 222.585,189.155 220.526,189.283 219.225 C 189.335 218.689,189.450 218.160,189.536 218.050 C 189.747 217.783,189.539 217.167,189.239 217.167 C 189.094 217.167,189.000 217.333,189.000 217.589 M268.667 217.552 C 268.316 217.733,268.252 217.880,268.265 218.478 C 268.307 220.449,271.000 220.791,271.000 218.826 C 271.000 217.593,269.830 216.955,268.667 217.552 M153.020 217.925 C 152.026 218.762,151.667 220.008,151.667 222.616 C 151.667 224.047,151.596 224.822,151.436 225.133 C 151.310 225.381,151.150 225.918,151.082 226.327 C 151.014 226.736,150.900 227.186,150.828 227.327 C 150.583 227.806,150.000 230.136,150.006 230.611 C 150.026 232.203,152.583 232.491,153.092 230.958 C 153.146 230.798,153.253 230.667,153.331 230.667 C 153.460 230.667,153.987 229.127,154.271 227.917 C 154.336 227.642,154.525 227.117,154.691 226.750 C 154.927 226.228,154.993 225.652,154.996 224.093 C 154.998 222.999,155.089 221.674,155.197 221.150 C 155.676 218.831,154.324 216.828,153.020 217.925 M261.006 220.656 C 260.775 221.086,260.788 221.167,261.083 221.167 C 261.239 221.167,261.333 221.009,261.333 220.750 C 261.333 220.250,261.238 220.222,261.006 220.656 M261.944 222.278 C 261.883 222.339,261.833 222.533,261.833 222.708 C 261.833 223.141,262.236 222.987,262.303 222.529 C 262.355 222.178,262.172 222.050,261.944 222.278 M262.872 225.198 C 262.975 225.507,263.333 225.558,263.333 225.264 C 263.333 225.119,263.215 225.000,263.069 225.000 C 262.924 225.000,262.835 225.089,262.872 225.198 M308.065 225.875 C 308.123 226.173,308.283 226.500,308.419 226.602 C 308.555 226.703,308.667 226.910,308.667 227.060 C 308.667 227.210,308.760 227.335,308.875 227.338 C 309.157 227.344,310.500 228.554,310.500 228.802 C 310.500 228.911,310.612 229.000,310.750 229.000 C 310.887 229.000,311.000 229.075,311.000 229.167 C 311.000 229.436,311.668 229.357,311.776 229.075 C 311.882 228.799,311.244 228.000,310.918 228.000 C 310.814 228.000,310.549 227.682,310.331 227.293 C 309.406 225.648,307.826 224.659,308.065 225.875 M185.880 226.997 C 184.896 228.146,184.972 230.035,186.096 232.417 C 186.226 232.692,186.381 233.179,186.440 233.500 C 186.927 236.126,189.156 237.508,188.792 234.958 C 188.435 232.451,187.748 228.834,187.562 228.474 C 187.436 228.231,187.333 227.875,187.333 227.683 C 187.333 226.870,186.376 226.418,185.880 226.997 M394.723 240.246 C 393.573 241.051,394.600 243.113,396.417 243.646 C 399.502 244.552,400.000 244.505,400.000 243.302 C 400.000 241.795,398.951 240.941,396.257 240.253 C 395.051 239.946,395.151 239.946,394.723 240.246 M239.561 242.409 C 239.768 244.175,241.934 246.648,242.845 246.160 C 243.279 245.928,243.250 245.502,242.750 244.766 C 242.521 244.428,242.333 244.080,242.333 243.993 C 242.333 243.905,242.268 243.833,242.189 243.833 C 242.109 243.833,241.842 243.527,241.595 243.154 C 240.333 241.248,239.384 240.900,239.561 242.409 M222.836 243.494 C 222.275 244.542,222.210 247.917,222.750 247.917 C 223.107 247.917,223.458 246.075,223.487 244.042 C 223.501 243.103,223.187 242.839,222.836 243.494 M222.333 249.250 C 222.333 249.479,222.258 249.667,222.167 249.667 C 221.986 249.667,221.937 250.974,222.101 251.403 C 222.157 251.548,222.301 251.667,222.423 251.667 C 222.692 251.667,222.971 249.796,222.714 249.710 C 222.623 249.680,222.584 249.470,222.627 249.244 C 222.673 249.006,222.627 248.833,222.519 248.833 C 222.417 248.833,222.333 249.021,222.333 249.250 M222.083 252.167 C 221.944 252.392,222.132 252.667,222.427 252.667 C 222.559 252.667,222.667 252.517,222.667 252.333 C 222.667 251.988,222.265 251.873,222.083 252.167 M221.586 262.693 C 221.735 263.388,221.810 263.471,222.010 263.162 C 222.250 262.790,222.122 262.261,221.775 262.195 C 221.507 262.143,221.482 262.208,221.586 262.693 M221.001 271.996 C 220.824 272.108,220.804 272.204,220.932 272.332 C 221.158 272.558,221.667 272.374,221.667 272.066 C 221.667 271.799,221.363 271.767,221.001 271.996 M220.708 278.208 C 220.813 278.524,221.333 278.569,221.333 278.262 C 221.333 278.108,221.191 278.000,220.986 278.000 C 220.782 278.000,220.668 278.086,220.708 278.208 " stroke="none" fill="#0404fc" fill-rule="evenodd"></path><path id="path1" d="" stroke="none" fill="#0804fc" fill-rule="evenodd"></path><path id="path2" d="" stroke="none" fill="#0804fc" fill-rule="evenodd"></path><path id="path3" d="" stroke="none" fill="#0804fc" fill-rule="evenodd"></path><path id="path4" d="" stroke="none" fill="#0804fc" fill-rule="evenodd"></path></g></svg>